<?xml version="1.0" encoding="UTF-8" standalone="no"?>
<svg
   xmlns:dc="http://purl.org/dc/elements/1.1/"
   xmlns:cc="http://creativecommons.org/ns#"
   xmlns:rdf="http://www.w3.org/1999/02/22-rdf-syntax-ns#"
   xmlns:svg="http://www.w3.org/2000/svg"
   xmlns="http://www.w3.org/2000/svg"
   viewBox="0 0 1122.52 793.70667"
   height="793.70667"
   width="1122.52"
   xml:space="preserve"
   id="svg2"
   version="1.1"><metadata
     id="metadata8"><rdf:RDF><cc:Work
         rdf:about=""><dc:format>image/svg+xml</dc:format><dc:type
           rdf:resource="http://purl.org/dc/dcmitype/StillImage" /></cc:Work></rdf:RDF></metadata><defs
     id="defs6"><clipPath
       id="clipPath18"
       clipPathUnits="userSpaceOnUse"><path
         id="path16"
         d="M 0,595.28 H 841.89 V 0 H 0 Z" /></clipPath></defs><g
     transform="matrix(1.3333333,0,0,-1.3333333,0,793.70667)"
     id="g10"><g
       id="g12"><g
         clip-path="url(#clipPath18)"
         id="g14"><g
           transform="translate(420.1504,274.3701)"
           id="g20"><path
             id="path22"
             style="fill:#852d84;fill-opacity:1;fill-rule:nonzero;stroke:none"
             d="m 0,0 c -8.109,10.488 -60.86,65.675 -51.213,77.446 17.202,20.968 49.04,-40.629 68.727,-25.6 21.53,16.44 42.549,33.491 63.418,50.759 8.36,6.92 16.771,13.772 24.933,20.891 v 0.933 c 0,64.573 -30.461,97.779 -91.856,97.779 -40.921,0 -74.573,-17.286 -96.859,-40.015 l 25.557,-21.827 0.515,-0.445 0.64,-0.539 0.035,0.016 c 3.982,-3.507 9.132,-5.714 14.841,-5.714 4.177,0 8.033,1.206 11.382,3.174 l 0.03,-0.063 c 11.382,6.953 22.397,9.92 33.413,9.92 18.174,0 31.829,-11.81 31.829,-36.825 H 0.372 c -61.841,0 -103.214,-20.922 -103.214,-75.937 0,-41.843 26.817,-68.209 74.562,-68.209 15.022,0 27.035,2.234 36.678,6.026 C 5.942,-6.797 3.219,-4.166 0,0" /></g><g
           transform="translate(526.0156,287.0586)"
           id="g24"><path
             id="path26"
             style="fill:#ec6a20;fill-opacity:1;fill-rule:nonzero;stroke:none"
             d="M 0,0 V 72.432 C -5.382,66.555 -10.789,60.701 -16.272,54.917 -26.173,44.465 -36.078,34.013 -45.95,23.539 -53.612,15.408 -61.256,7.262 -68.9,-0.884 l 34.567,-20.367 c 0.443,-0.282 0.897,-0.552 1.361,-0.803 l 0.049,-0.027 h 0.005 c 2.645,-1.423 5.605,-2.335 8.753,-2.593 h 3.716 c 10.747,0.883 19.16,9.334 20.261,20.016 C -0.109,-3.892 0.078,-0.765 0,0" /></g><g
           transform="translate(688.2656,140.3594)"
           id="g28"><path
             id="path30"
             style="fill:#852d84;fill-opacity:1;fill-rule:nonzero;stroke:none"
             d="m 0,0 c -10.296,0 -15.374,7.823 -15.374,18.799 0,11.121 5.078,19.08 15.374,19.08 10.292,0 15.37,-7.959 15.37,-19.08 C 15.37,7.823 10.292,0 0,0 m 0,54.628 c -19.491,0 -36.648,-12.903 -36.648,-35.829 0,-22.92 17.157,-35.545 36.648,-35.545 19.49,0 36.646,12.625 36.646,35.545 C 36.646,41.725 19.49,54.628 0,54.628" /></g><g
           transform="translate(229.3022,178.2383)"
           id="g32"><path
             id="path34"
             style="fill:#852d84;fill-opacity:1;fill-rule:nonzero;stroke:none"
             d="m 0,0 c 3.221,0 6.852,-0.872 10.215,-3.872 l 0.063,0.044 c 1.217,-1.127 2.834,-1.831 4.618,-1.831 1.85,0 3.522,0.744 4.756,1.936 l 0.088,0.085 7.302,6.522 c -6.315,8.509 -14.963,13.865 -28.417,13.865 -19.764,0 -35.684,-15.786 -35.684,-35.829 0,-20.035 15.92,-35.545 35.684,-35.545 13.454,0 22.102,5.352 28.417,13.86 l -7.067,6.311 -0.766,0.69 c -1.16,0.91 -2.607,1.476 -4.197,1.476 -1.764,0 -3.358,-0.691 -4.571,-1.787 l -0.024,0.038 C 7.001,-37.219 3.282,-37.879 0,-37.879 c -9.744,0 -15.787,8.096 -15.787,18.799 C -15.787,-8.231 -9.744,0 0,0" /></g><g
           transform="translate(541.6367,143.832)"
           id="g36"><path
             id="path38"
             style="fill:#852d84;fill-opacity:1;fill-rule:nonzero;stroke:none"
             d="M 0,0 -0.001,0.003 C -0.004,0.002 -0.005,0 -0.006,0 Z" /></g><g
           transform="translate(513.8232,165.7471)"
           id="g40"><path
             id="path42"
             style="fill:#852d84;fill-opacity:1;fill-rule:nonzero;stroke:none"
             d="M 0,0 C 0,7.552 5.898,12.491 13.31,12.491 21,12.491 26.763,7.552 26.763,0 Z m 13.31,29.24 c -21,0 -34.587,-15.513 -34.587,-35.55 0,-20.042 13.587,-35.824 35.823,-35.824 12.768,0 22.236,4.389 29.648,11.667 l -7.978,7.368 -0.487,0.451 c -1.199,1.049 -2.75,1.701 -4.467,1.701 -1.264,0 -2.435,-0.369 -3.449,-0.965 v -0.003 h -0.005 c 0.001,0 0.002,0.002 0.005,0.003 l -0.034,0.036 C 24.07,-24.21 19.644,-25.388 15.644,-25.388 7.823,-25.388 0,-20.86 0,-12.897 l 48.041,-0.413 v 7 c 0,20.314 -13.314,35.55 -34.731,35.55" /></g><g
           transform="translate(160.2578,147.9043)"
           id="g44"><path
             id="path46"
             style="fill:#852d84;fill-opacity:1;fill-rule:nonzero;stroke:none"
             d="m 0,0 c 0,-5.764 -2.474,-10.291 -11.533,-10.291 -5.078,0 -8.922,2.193 -8.922,7.134 0,4.945 3.297,7.001 13.042,7.001 l 7.413,0 z m -6.455,47.083 c -12.351,0 -22.509,-5.217 -29.236,-12.078 l 7.714,-6.588 0.156,-0.134 0.194,-0.163 0.009,0.004 c 1.204,-1.058 2.758,-1.724 4.481,-1.724 1.259,0 2.424,0.365 3.434,0.959 l 0.011,-0.02 c 3.435,2.099 6.76,2.995 10.085,2.995 C -4.121,30.334 0,26.77 0,19.218 h -10.571 c -18.665,0 -31.154,-6.315 -31.154,-22.921 0,-12.63 8.095,-20.588 22.507,-20.588 10.43,0 16.06,3.564 19.218,8.231 l 11.177,-6.596 h 0.013 c 0.994,-0.583 2.147,-0.923 3.383,-0.923 3.7,0 6.699,2.999 6.699,6.698 v 34.45 c 0,19.493 -9.194,29.514 -27.727,29.514" /></g><g
           transform="translate(303.436,147.9043)"
           id="g48"><path
             id="path50"
             style="fill:#852d84;fill-opacity:1;fill-rule:nonzero;stroke:none"
             d="m 0,0 c 0,-5.764 -2.474,-10.291 -11.533,-10.291 -5.078,0 -8.922,2.193 -8.922,7.134 0,4.945 3.297,7.001 13.041,7.001 l 7.414,0 z m -6.455,47.083 c -12.351,0 -22.509,-5.217 -29.236,-12.078 l 7.714,-6.588 0.156,-0.134 0.194,-0.163 0.009,0.004 c 1.203,-1.058 2.758,-1.724 4.48,-1.724 1.26,0 2.425,0.365 3.435,0.959 l 0.011,-0.02 c 3.435,2.099 6.76,2.995 10.085,2.995 C -4.121,30.334 0,26.77 0,19.218 h -10.571 c -18.665,0 -31.154,-6.315 -31.154,-22.921 0,-12.63 8.095,-20.588 22.507,-20.588 10.43,0 16.06,3.564 19.218,8.231 l 11.176,-6.596 h 0.013 c 0.995,-0.583 2.148,-0.923 3.384,-0.923 3.7,0 6.699,2.999 6.699,6.698 v 34.45 c 0,19.493 -9.194,29.514 -27.727,29.514" /></g><g
           transform="translate(469.5371,194.2793)"
           id="g52"><path
             id="path54"
             style="fill:#852d84;fill-opacity:1;fill-rule:nonzero;stroke:none"
             d="m 0,0 0.016,-0.005 c -0.029,0 -0.058,0.01 -0.092,0.01 -3.771,0 -6.827,-3.057 -6.827,-6.828 0,-0.053 0.018,-0.106 0.018,-0.162 0,0.004 -0.004,0.012 -0.004,0.018 h -0.019 v -33.639 c 0,-10.435 -3.57,-14.829 -11.803,-14.829 -7.966,0 -11.808,4.394 -11.808,14.829 v 33.932 l -0.03,-0.009 c -0.073,3.629 -2.973,6.54 -6.587,6.663 l -0.004,0.039 h -13.693 l 0.139,-42 c 0,-19.49 7.823,-28.685 24.017,-28.685 7.029,0 14.81,2.694 19.293,7.947 l 10.695,-6.312 h 0.012 c 0.994,-0.583 2.148,-0.923 3.383,-0.923 3.7,0 6.7,2.999 6.7,6.698 v 7.352 15.77 40.153 h -13.41 z" /></g><g
           transform="translate(374.5151,140.3594)"
           id="g56"><path
             id="path58"
             style="fill:#852d84;fill-opacity:1;fill-rule:nonzero;stroke:none"
             d="m 0,0 c -10.296,0 -16.061,7.823 -16.061,18.939 0,10.981 5.765,18.94 16.061,18.94 10.295,0 16.059,-7.959 16.059,-18.94 C 16.059,7.823 10.295,0 0,0 m 6.448,54.628 c -6.475,0 -15.172,-1.891 -21.113,-8.364 l -12.572,7.441 h -0.013 c -0.995,0.583 -2.148,0.923 -3.384,0.923 -3.327,0 -6.08,-2.428 -6.603,-5.607 l -0.096,0.009 V 47.929 24.807 -41.454 h 14.378 v 0.019 c 0.038,0 0.077,-0.015 0.117,-0.015 3.596,0 6.519,2.798 6.777,6.33 v 0.996 27.397 c 5.903,-7.825 15.508,-10.019 22.509,-10.019 17.296,0 30.884,13.448 30.884,35.685 0,23.611 -13.588,35.689 -30.884,35.689" /></g><g
           transform="translate(606.0537,140.3594)"
           id="g60"><path
             id="path62"
             style="fill:#852d84;fill-opacity:1;fill-rule:nonzero;stroke:none"
             d="m 0,0 c -10.294,0 -16.06,7.957 -16.06,18.939 0,11.121 5.766,18.94 16.06,18.94 10.291,0 16.06,-7.819 16.06,-18.94 C 16.06,7.957 10.291,0 0,0 m 22.734,90.999 c -3.54,0 -6.429,-2.747 -6.674,-6.223 V 83.821 44.606 c -5.903,7.823 -15.514,10.022 -22.514,10.022 -17.291,0 -30.884,-13.453 -30.884,-35.689 0,-23.607 13.593,-35.685 30.884,-35.685 6.628,0 15.593,1.975 21.537,8.826 l 12.153,-7.191 h 0.013 c 0.994,-0.583 2.147,-0.923 3.384,-0.923 3.699,0 6.699,2.999 6.699,6.698 v 8.211 14.911 77.213 z" /></g></g></g></g></svg>